<svg width="103" height="82" viewBox="0 0 103 82" fill="none" xmlns="http://www.w3.org/2000/svg">
<rect x="0.5" y="0.5" width="26" height="35" rx="3.5" fill="white"/>
<rect x="0.5" y="0.5" width="26" height="35" rx="3.5" stroke="#DDDDDD"/>
<path d="M13.3281 24H9.48438V12.6875H13.3906C16.7656 12.6875 18.8125 14.8125 18.8125 18.3281C18.8125 21.8594 16.7656 24 13.3281 24ZM11.5156 22.2344H13.2188C15.5781 22.2344 16.7812 20.9375 16.7812 18.3281C16.7812 15.7344 15.5781 14.4531 13.2812 14.4531H11.5156V22.2344Z" fill="#DDDDDD"/>
<path d="M2 34.5L8.5 26" stroke="#DDDDDD"/>
<path d="M18 12L26 1" stroke="#DDDDDD"/>
<rect x="38.5" y="0.5" width="26" height="35" rx="3.5" fill="white"/>
<rect x="38.5" y="0.5" width="26" height="35" rx="3.5" stroke="#DDDDDD"/>
<path d="M48.3906 24V12.6875H55.75V14.3906H50.4219V17.4844H55.3594V19.1875H50.4219V22.2812H55.7812V24H48.3906Z" fill="#DDDDDD"/>
<path d="M40 34.5L46.5 26" stroke="#DDDDDD"/>
<path d="M56 12L64 1" stroke="#DDDDDD"/>
<rect x="76.5" y="0.5" width="26" height="35" rx="3.5" fill="white"/>
<rect x="76.5" y="0.5" width="26" height="35" rx="3.5" stroke="#DDDDDD"/>
<path d="M86.0625 24V12.6875H93.3125V14.3906H88.0938V17.4844H92.8125V19.1875H88.0938V24H86.0625Z" fill="#DDDDDD"/>
<path d="M78 34.5L84.5 26" stroke="#DDDDDD"/>
<path d="M94 12L102 1" stroke="#DDDDDD"/>
<rect x="24" y="54" width="56" height="28" rx="4" fill="#5642F1"/>
<path d="M48.9375 74H46.7656L50.75 62.6875H53.25L57.25 74H55.0781L54.1406 71.2031H49.875L48.9375 74ZM50.4219 69.5625H53.5938L52.0469 65H51.9531L50.4219 69.5625Z" fill="white"/>
<path d="M103 36H0L25 60L78.5 60.5L103 36Z" fill="url(#paint0_linear_2554_413)" fill-opacity="0.4"/>
<defs>
<linearGradient id="paint0_linear_2554_413" x1="51.5" y1="60" x2="51.5" y2="36" gradientUnits="userSpaceOnUse">
<stop stop-color="#7565F0"/>
<stop offset="1" stop-color="white"/>
</linearGradient>
</defs>
</svg>
