<svg width="188" height="83" viewBox="0 0 188 83" fill="none" xmlns="http://www.w3.org/2000/svg">
<line x1="25.5" y1="53" x2="25.5" y2="40" stroke="black"/>
<line x1="162.5" y1="53" x2="162.5" y2="40" stroke="black"/>
<rect x="54" width="79" height="30" rx="4" fill="#5642F1"/>
<rect x="0.375" y="53.375" width="50.25" height="29.25" rx="3.625" fill="white" stroke="#5642F1" stroke-width="0.75"/>
<rect x="69.375" y="53.375" width="49.25" height="29.25" rx="3.625" fill="white" stroke="#5642F1" stroke-width="0.75"/>
<rect x="137.375" y="53.375" width="50.25" height="29.25" rx="3.625" fill="white" stroke="#5642F1" stroke-width="0.75"/>
<path d="M90.9375 21H88.7656L92.75 9.6875H95.25L99.25 21H97.0781L96.1406 18.2031H91.875L90.9375 21ZM92.4219 16.5625H95.5938L94.0469 12H93.9531L92.4219 16.5625Z" fill="white"/>
<path d="M21.5 74V62.6875H25.8281C28.2812 62.6875 29.5 63.9375 29.5 65.625C29.5 67 28.625 67.7656 27.5156 68.0312V68.1406C28.7188 68.2031 29.9375 69.2031 29.9375 70.9219C29.9375 72.6875 28.6719 74 26.0781 74H21.5ZM25.7656 72.2969C27.25 72.2969 27.875 71.6562 27.875 70.7656C27.875 69.75 27.0781 68.9688 25.8125 68.9688H23.5312V72.2969H25.7656ZM25.5781 67.5C26.6562 67.5 27.4688 66.875 27.4688 65.875C27.4688 65 26.8438 64.375 25.625 64.375H23.5312V67.5H25.5781Z" fill="#5642F1"/>
<path d="M96.9609 66.5C96.7266 65.1406 95.6328 64.3594 94.2578 64.3594C92.3984 64.3594 91.1016 65.7812 91.1016 68.3438C91.1016 70.9375 92.4141 72.3281 94.2578 72.3281C95.6016 72.3281 96.6953 71.5781 96.9609 70.25H99.0078C98.6953 72.4219 96.9141 74.1562 94.2266 74.1562C91.2422 74.1562 89.0547 71.9844 89.0547 68.3438C89.0547 64.6875 91.2734 62.5312 94.2266 62.5312C96.7266 62.5312 98.6641 63.9844 99.0078 66.5H96.9609Z" fill="#5642F1"/>
<path d="M162.328 74H158.484V62.6875H162.391C165.766 62.6875 167.812 64.8125 167.812 68.3281C167.812 71.8594 165.766 74 162.328 74ZM160.516 72.2344H162.219C164.578 72.2344 165.781 70.9375 165.781 68.3281C165.781 65.7344 164.578 64.4531 162.281 64.4531H160.516V72.2344Z" fill="#5642F1"/>
<line x1="25" y1="39.5" x2="163" y2="39.5" stroke="black"/>
<line x1="94.5" y1="30" x2="94.5" y2="40" stroke="black"/>
<line x1="94.5" y1="40" x2="94.5" y2="53" stroke="black"/>
</svg>
