<svg width="130" height="81" viewBox="0 0 130 81" fill="none" xmlns="http://www.w3.org/2000/svg">
<path d="M4.2401 17.0592C8.16731 12.4428 19.342 5.40673 32.6231 14.1939C49.2244 25.1778 57.2573 24.2227 69.0389 17.0592C80.8205 9.89577 93.1376 9.89584 101.706 17.0592C110.275 24.2226 133.295 43.8785 128.783 32.4675C123.452 18.987 115.699 73.4082 101.706 64.9205C95.3455 61.9248 82.6489 54.5355 62.8771 62.9234C38.1623 73.4082 42.1065 72.4096 32.6231 71.4111C23.1396 70.4125 15.8706 54.9349 0.363281 71.4111" stroke="black"/>
<rect x="15.7383" y="0.375" width="25.25" height="33.25" rx="3.625" fill="white" stroke="#5642F1" stroke-width="0.75"/>
<rect x="69.7383" y="0.375" width="25.25" height="33.25" rx="3.625" fill="white" stroke="#5642F1" stroke-width="0.75"/>
<path d="M25.6836 22H23.7832L27.2695 12.1016H29.457L32.957 22H31.0566L30.2363 19.5527H26.5039L25.6836 22ZM26.9824 18.1172H29.7578L28.4043 14.125H28.3223L26.9824 18.1172Z" fill="#5642F1"/>
<path d="M79.3633 22V12.1016H83.1504C85.2969 12.1016 86.3633 13.1953 86.3633 14.6719C86.3633 15.875 85.5977 16.5449 84.627 16.7773V16.873C85.6797 16.9277 86.7461 17.8027 86.7461 19.3066C86.7461 20.8516 85.6387 22 83.3691 22H79.3633ZM83.0957 20.5098C84.3945 20.5098 84.9414 19.9492 84.9414 19.1699C84.9414 18.2812 84.2441 17.5977 83.1367 17.5977H81.1406V20.5098H83.0957ZM82.9316 16.3125C83.875 16.3125 84.5859 15.7656 84.5859 14.8906C84.5859 14.125 84.0391 13.5781 82.9727 13.5781H81.1406V16.3125H82.9316Z" fill="#5642F1"/>
<circle cx="54.3633" cy="22" r="2" fill="#5642F1"/>
<circle cx="55.3633" cy="66" r="2" fill="#5642F1"/>
<rect x="70.7383" y="47.375" width="25.25" height="33.25" rx="3.625" fill="white" stroke="#5642F1" stroke-width="0.75"/>
<rect x="15.7383" y="47.375" width="25.25" height="33.25" rx="3.625" fill="white" stroke="#5642F1" stroke-width="0.75"/>
<path d="M85.9541 62.4375C85.749 61.248 84.792 60.5645 83.5889 60.5645C81.9619 60.5645 80.8271 61.8086 80.8271 64.0508C80.8271 66.3203 81.9756 67.5371 83.5889 67.5371C84.7646 67.5371 85.7217 66.8809 85.9541 65.7188H87.7451C87.4717 67.6191 85.9131 69.1367 83.5615 69.1367C80.9502 69.1367 79.0361 67.2363 79.0361 64.0508C79.0361 60.8516 80.9775 58.9648 83.5615 58.9648C85.749 58.9648 87.4443 60.2363 87.7451 62.4375H85.9541Z" fill="#5642F1"/>
<path d="M27.7754 69H24.4121V59.1016H27.8301C30.7832 59.1016 32.5742 60.9609 32.5742 64.0371C32.5742 67.127 30.7832 69 27.7754 69ZM26.1895 67.4551H27.6797C29.7441 67.4551 30.7969 66.3203 30.7969 64.0371C30.7969 61.7676 29.7441 60.6465 27.7344 60.6465H26.1895V67.4551Z" fill="#5642F1"/>
</svg>
