<svg width="15" height="73" viewBox="0 0 15 73" fill="none" xmlns="http://www.w3.org/2000/svg">
<path d="M6.65666 72.7071C7.04718 73.0976 7.68035 73.0976 8.07087 72.7071L14.4348 66.3431C14.8254 65.9526 14.8254 65.3195 14.4348 64.9289C14.0443 64.5384 13.4111 64.5384 13.0206 64.9289L7.36377 70.5858L1.70691 64.9289C1.31639 64.5384 0.683223 64.5384 0.292699 64.9289C-0.0978255 65.3195 -0.0978255 65.9526 0.292699 66.3431L6.65666 72.7071ZM6.36377 2C6.36377 2.55228 6.81148 3 7.36377 3C7.91605 3 8.36377 2.55228 8.36377 2L7.36377 2L6.36377 2ZM8.36377 6C8.36377 5.44772 7.91605 5 7.36377 5C6.81148 5 6.36377 5.44772 6.36377 6L7.36377 6L8.36377 6ZM6.36377 10C6.36377 10.5523 6.81148 11 7.36377 11C7.91605 11 8.36377 10.5523 8.36377 10L7.36377 10L6.36377 10ZM8.36377 14C8.36377 13.4477 7.91605 13 7.36377 13C6.81148 13 6.36377 13.4477 6.36377 14L7.36377 14L8.36377 14ZM6.36377 18C6.36377 18.5523 6.81148 19 7.36377 19C7.91605 19 8.36377 18.5523 8.36377 18L7.36377 18L6.36377 18ZM8.36377 22C8.36377 21.4477 7.91605 21 7.36377 21C6.81148 21 6.36377 21.4477 6.36377 22L7.36377 22L8.36377 22ZM6.36377 26C6.36377 26.5523 6.81148 27 7.36377 27C7.91605 27 8.36377 26.5523 8.36377 26L7.36377 26L6.36377 26ZM8.36377 30C8.36377 29.4477 7.91605 29 7.36377 29C6.81148 29 6.36377 29.4477 6.36377 30L7.36377 30L8.36377 30ZM6.36377 34C6.36377 34.5523 6.81148 35 7.36377 35C7.91605 35 8.36377 34.5523 8.36377 34L7.36377 34L6.36377 34ZM8.36377 38C8.36377 37.4477 7.91605 37 7.36377 37C6.81148 37 6.36377 37.4477 6.36377 38L7.36377 38L8.36377 38ZM6.36377 42C6.36377 42.5523 6.81148 43 7.36377 43C7.91605 43 8.36377 42.5523 8.36377 42L7.36377 42L6.36377 42ZM8.36377 46C8.36377 45.4477 7.91605 45 7.36377 45C6.81148 45 6.36377 45.4477 6.36377 46L7.36377 46L8.36377 46ZM6.36377 50C6.36377 50.5523 6.81148 51 7.36377 51C7.91605 51 8.36377 50.5523 8.36377 50L7.36377 50L6.36377 50ZM8.36377 54C8.36377 53.4477 7.91605 53 7.36377 53C6.81148 53 6.36377 53.4477 6.36377 54L7.36377 54L8.36377 54ZM6.36377 58C6.36377 58.5523 6.81148 59 7.36377 59C7.91605 59 8.36377 58.5523 8.36377 58L7.36377 58L6.36377 58ZM8.36377 62C8.36377 61.4477 7.91605 61 7.36377 61C6.81148 61 6.36377 61.4477 6.36377 62L7.36377 62L8.36377 62ZM6.36377 66C6.36377 66.5523 6.81148 67 7.36377 67C7.91605 67 8.36377 66.5523 8.36377 66L7.36377 66L6.36377 66ZM8.36377 70C8.36377 69.4477 7.91605 69 7.36377 69C6.81148 69 6.36377 69.4477 6.36377 70L7.36377 70L8.36377 70ZM7.36377 0L6.36377 -4.37114e-08L6.36377 2L7.36377 2L8.36377 2L8.36377 4.37114e-08L7.36377 0ZM7.36377 6L6.36377 6L6.36377 10L7.36377 10L8.36377 10L8.36377 6L7.36377 6ZM7.36377 14L6.36377 14L6.36377 18L7.36377 18L8.36377 18L8.36377 14L7.36377 14ZM7.36377 22L6.36377 22L6.36377 26L7.36377 26L8.36377 26L8.36377 22L7.36377 22ZM7.36377 30L6.36377 30L6.36377 34L7.36377 34L8.36377 34L8.36377 30L7.36377 30ZM7.36377 38L6.36377 38L6.36377 42L7.36377 42L8.36377 42L8.36377 38L7.36377 38ZM7.36377 46L6.36377 46L6.36377 50L7.36377 50L8.36377 50L8.36377 46L7.36377 46ZM7.36377 54L6.36377 54L6.36377 58L7.36377 58L8.36377 58L8.36377 54L7.36377 54ZM7.36377 62L6.36377 62L6.36377 66L7.36377 66L8.36377 66L8.36377 62L7.36377 62ZM7.36377 70L6.36377 70L6.36377 72L7.36377 72L8.36377 72L8.36377 70L7.36377 70ZM6.65666 72.7071C7.04718 73.0976 7.68035 73.0976 8.07087 72.7071L14.4348 66.3431C14.8254 65.9526 14.8254 65.3195 14.4348 64.9289C14.0443 64.5384 13.4111 64.5384 13.0206 64.9289L7.36377 70.5858L1.70691 64.9289C1.31639 64.5384 0.683223 64.5384 0.292699 64.9289C-0.0978255 65.3195 -0.0978255 65.9526 0.292699 66.3431L6.65666 72.7071ZM6.36377 2C6.36377 2.55228 6.81148 3 7.36377 3C7.91605 3 8.36377 2.55228 8.36377 2L7.36377 2L6.36377 2ZM8.36377 6C8.36377 5.44772 7.91605 5 7.36377 5C6.81148 5 6.36377 5.44772 6.36377 6L7.36377 6L8.36377 6ZM6.36377 10C6.36377 10.5523 6.81148 11 7.36377 11C7.91605 11 8.36377 10.5523 8.36377 10L7.36377 10L6.36377 10ZM8.36377 14C8.36377 13.4477 7.91605 13 7.36377 13C6.81148 13 6.36377 13.4477 6.36377 14L7.36377 14L8.36377 14ZM6.36377 18C6.36377 18.5523 6.81148 19 7.36377 19C7.91605 19 8.36377 18.5523 8.36377 18L7.36377 18L6.36377 18ZM8.36377 22C8.36377 21.4477 7.91605 21 7.36377 21C6.81148 21 6.36377 21.4477 6.36377 22L7.36377 22L8.36377 22ZM6.36377 26C6.36377 26.5523 6.81148 27 7.36377 27C7.91605 27 8.36377 26.5523 8.36377 26L7.36377 26L6.36377 26ZM8.36377 30C8.36377 29.4477 7.91605 29 7.36377 29C6.81148 29 6.36377 29.4477 6.36377 30L7.36377 30L8.36377 30ZM6.36377 34C6.36377 34.5523 6.81148 35 7.36377 35C7.91605 35 8.36377 34.5523 8.36377 34L7.36377 34L6.36377 34ZM8.36377 38C8.36377 37.4477 7.91605 37 7.36377 37C6.81148 37 6.36377 37.4477 6.36377 38L7.36377 38L8.36377 38ZM6.36377 42C6.36377 42.5523 6.81148 43 7.36377 43C7.91605 43 8.36377 42.5523 8.36377 42L7.36377 42L6.36377 42ZM8.36377 46C8.36377 45.4477 7.91605 45 7.36377 45C6.81148 45 6.36377 45.4477 6.36377 46L7.36377 46L8.36377 46ZM6.36377 50C6.36377 50.5523 6.81148 51 7.36377 51C7.91605 51 8.36377 50.5523 8.36377 50L7.36377 50L6.36377 50ZM8.36377 54C8.36377 53.4477 7.91605 53 7.36377 53C6.81148 53 6.36377 53.4477 6.36377 54L7.36377 54L8.36377 54ZM6.36377 58C6.36377 58.5523 6.81148 59 7.36377 59C7.91605 59 8.36377 58.5523 8.36377 58L7.36377 58L6.36377 58ZM8.36377 62C8.36377 61.4477 7.91605 61 7.36377 61C6.81148 61 6.36377 61.4477 6.36377 62L7.36377 62L8.36377 62ZM6.36377 66C6.36377 66.5523 6.81148 67 7.36377 67C7.91605 67 8.36377 66.5523 8.36377 66L7.36377 66L6.36377 66ZM8.36377 70C8.36377 69.4477 7.91605 69 7.36377 69C6.81148 69 6.36377 69.4477 6.36377 70L7.36377 70L8.36377 70ZM7.36377 0L6.36377 -4.37114e-08L6.36377 2L7.36377 2L8.36377 2L8.36377 4.37114e-08L7.36377 0ZM7.36377 6L6.36377 6L6.36377 10L7.36377 10L8.36377 10L8.36377 6L7.36377 6ZM7.36377 14L6.36377 14L6.36377 18L7.36377 18L8.36377 18L8.36377 14L7.36377 14ZM7.36377 22L6.36377 22L6.36377 26L7.36377 26L8.36377 26L8.36377 22L7.36377 22ZM7.36377 30L6.36377 30L6.36377 34L7.36377 34L8.36377 34L8.36377 30L7.36377 30ZM7.36377 38L6.36377 38L6.36377 42L7.36377 42L8.36377 42L8.36377 38L7.36377 38ZM7.36377 46L6.36377 46L6.36377 50L7.36377 50L8.36377 50L8.36377 46L7.36377 46ZM7.36377 54L6.36377 54L6.36377 58L7.36377 58L8.36377 58L8.36377 54L7.36377 54ZM7.36377 62L6.36377 62L6.36377 66L7.36377 66L8.36377 66L8.36377 62L7.36377 62ZM7.36377 70L6.36377 70L6.36377 72L7.36377 72L8.36377 72L8.36377 70L7.36377 70Z" fill="#7565F0"/>
</svg>
