<svg width="1086" height="120" viewBox="0 0 1086 120" fill="none" xmlns="http://www.w3.org/2000/svg">
<path d="M1.15625 15V3.6875H8.25V5.17188H2.875V8.59375H7.875V10.0625H2.875V13.5156H8.3125V15H1.15625ZM10.2188 15V6.51562H11.8281V7.90625H11.9219C12.2812 6.95312 13.1094 6.40625 14.2344 6.40625C15.3594 6.40625 16.1562 6.96875 16.5156 7.90625H16.6094C17.0156 6.98438 17.9219 6.40625 19.1562 6.40625C20.6875 6.40625 21.7812 7.375 21.7812 9.3125V15H20.1094V9.46875C20.1094 8.32812 19.3906 7.84375 18.5156 7.84375C17.4375 7.84375 16.8281 8.57812 16.8281 9.59375V15H15.1719V9.375C15.1719 8.45312 14.5312 7.84375 13.625 7.84375C12.6875 7.84375 11.8906 8.625 11.8906 9.76562V15H10.2188ZM27.3906 15.1719C24.9844 15.1719 23.4219 13.4219 23.4219 10.7969C23.4219 8.15625 24.9844 6.40625 27.3906 6.40625C29.7812 6.40625 31.3438 8.15625 31.3438 10.7969C31.3438 13.4219 29.7812 15.1719 27.3906 15.1719ZM27.3906 13.7812C28.9219 13.7812 29.6562 12.4219 29.6562 10.7969C29.6562 9.17188 28.9219 7.78125 27.3906 7.78125C25.8281 7.78125 25.0938 9.17188 25.0938 10.7969C25.0938 12.4219 25.8281 13.7812 27.3906 13.7812ZM36.9531 6.51562V7.84375H35.2188V12.5C35.2188 13.4531 35.7031 13.625 36.2344 13.6406C36.4688 13.6406 36.8438 13.6094 37.0781 13.5938V15.0469C36.8438 15.0781 36.4844 15.1094 36.0312 15.1094C34.7188 15.1094 33.5469 14.3906 33.5625 12.8438V7.84375H32.3125V6.51562H33.5625V4.48438H35.2188V6.51562H36.9531ZM38.5781 15V6.51562H40.25V15H38.5781ZM39.4219 5.20312C38.8438 5.20312 38.3594 4.76562 38.3594 4.21875C38.3594 3.67188 38.8438 3.23438 39.4219 3.23438C39.9844 3.23438 40.4688 3.67188 40.4688 4.21875C40.4688 4.76562 39.9844 5.20312 39.4219 5.20312ZM45.875 15.1719C43.4688 15.1719 41.9062 13.4219 41.9062 10.7969C41.9062 8.15625 43.4688 6.40625 45.875 6.40625C48.2656 6.40625 49.8281 8.15625 49.8281 10.7969C49.8281 13.4219 48.2656 15.1719 45.875 15.1719ZM45.875 13.7812C47.4062 13.7812 48.1406 12.4219 48.1406 10.7969C48.1406 9.17188 47.4062 7.78125 45.875 7.78125C44.3125 7.78125 43.5781 9.17188 43.5781 10.7969C43.5781 12.4219 44.3125 13.7812 45.875 13.7812ZM53.1406 9.96875V15H51.4688V6.51562H53.0781V7.90625H53.1719C53.5781 7 54.4062 6.40625 55.6719 6.40625C57.4219 6.40625 58.5625 7.5 58.5625 9.60938V15H56.9062V9.8125C56.9062 8.57812 56.2344 7.84375 55.1094 7.84375C53.9688 7.84375 53.1406 8.60938 53.1406 9.96875ZM60.2031 12.6094C60.2031 10.6719 61.8438 10.1719 63.375 10.0625C63.9375 10.0234 65.2109 9.95312 65.6094 9.9375L65.5938 9.26562C65.5938 8.3125 65.0156 7.75 63.875 7.75C62.8906 7.75 62.2969 8.20312 62.125 8.82812H60.4688C60.625 7.42188 61.9375 6.40625 63.9375 6.40625C65.2812 6.40625 67.2656 6.90625 67.2656 9.35938V15H65.6406V13.8438H65.5781C65.25 14.4844 64.4688 15.1875 63.0625 15.1875C61.4531 15.1875 60.2031 14.2656 60.2031 12.6094ZM61.8281 12.625C61.8281 13.4375 62.5 13.8594 63.4375 13.8594C64.7969 13.8594 65.6094 12.9531 65.6094 11.9375V11.1562L63.6094 11.2969C62.5156 11.375 61.8281 11.7812 61.8281 12.625ZM70.9531 3.6875V15H69.2812V3.6875H70.9531Z" fill="#7565F0"/>
<path d="M30.8125 107.375C30.5312 105.922 29.3281 105.109 27.8906 105.109C25.9375 105.109 24.4844 106.609 24.4844 109.344C24.4844 112.094 25.9531 113.578 27.8906 113.578C29.3125 113.578 30.5156 112.781 30.8125 111.344L32.5469 111.359C32.1875 113.594 30.3594 115.156 27.875 115.156C24.9219 115.156 22.7812 112.953 22.7812 109.344C22.7812 105.719 24.9375 103.531 27.875 103.531C30.2656 103.531 32.1562 104.938 32.5469 107.375H30.8125ZM33.875 112.609C33.875 110.672 35.5156 110.172 37.0469 110.062C37.6094 110.023 38.8828 109.953 39.2812 109.938L39.2656 109.266C39.2656 108.312 38.6875 107.75 37.5469 107.75C36.5625 107.75 35.9688 108.203 35.7969 108.828H34.1406C34.2969 107.422 35.6094 106.406 37.6094 106.406C38.9531 106.406 40.9375 106.906 40.9375 109.359V115H39.3125V113.844H39.25C38.9219 114.484 38.1406 115.188 36.7344 115.188C35.125 115.188 33.875 114.266 33.875 112.609ZM35.5 112.625C35.5 113.438 36.1719 113.859 37.1094 113.859C38.4688 113.859 39.2812 112.953 39.2812 111.938V111.156L37.2812 111.297C36.1875 111.375 35.5 111.781 35.5 112.625ZM47.7188 108.828C47.5625 108.156 47.0312 107.719 46.1094 107.719C45.1562 107.719 44.4688 108.219 44.4844 108.859C44.4688 109.359 44.875 109.719 45.8125 109.938L47.1562 110.25C48.7188 110.594 49.4688 111.344 49.4844 112.547C49.4688 114.078 48.1875 115.172 46.0156 115.172C43.9844 115.172 42.7656 114.266 42.5625 112.688H44.2656C44.4062 113.453 45 113.828 46 113.828C47.0781 113.828 47.7656 113.391 47.7812 112.672C47.7656 112.125 47.3594 111.766 46.4688 111.562L45.1406 111.281C43.6094 110.938 42.8125 110.125 42.8125 108.953C42.8125 107.438 44.125 106.406 46.0938 106.406C47.9844 106.406 49.1562 107.375 49.3281 108.828H47.7188ZM56.5 111.469V106.516H58.1562V115H56.5312V113.531H56.4375C56.0469 114.438 55.1719 115.109 53.9062 115.109C52.2656 115.109 51.1094 114.016 51.1094 111.906V106.516H52.7812V111.703C52.7812 112.859 53.4844 113.594 54.5 113.594C55.4219 113.594 56.5 112.922 56.5 111.469ZM59.7969 112.609C59.7969 110.672 61.4375 110.172 62.9688 110.062C63.5312 110.023 64.8047 109.953 65.2031 109.938L65.1875 109.266C65.1875 108.312 64.6094 107.75 63.4688 107.75C62.4844 107.75 61.8906 108.203 61.7188 108.828H60.0625C60.2188 107.422 61.5312 106.406 63.5312 106.406C64.875 106.406 66.8594 106.906 66.8594 109.359V115H65.2344V113.844H65.1719C64.8438 114.484 64.0625 115.188 62.6562 115.188C61.0469 115.188 59.7969 114.266 59.7969 112.609ZM61.4219 112.625C61.4219 113.438 62.0938 113.859 63.0312 113.859C64.3906 113.859 65.2031 112.953 65.2031 111.938V111.156L63.2031 111.297C62.1094 111.375 61.4219 111.781 61.4219 112.625ZM70.5469 103.688V115H68.875V103.688H70.5469Z" fill="#7565F0"/>
<path d="M997.156 15V3.6875H1001.19C1003.81 3.6875 1005.11 5.15625 1005.11 7.23438C1005.11 8.75781 1004.42 9.91406 1003.05 10.4219L1005.55 15H1003.59L1001.3 10.7344H1001.19H998.875V15H997.156ZM998.875 9.25H1001.02C1002.69 9.25 1003.38 8.51562 1003.38 7.23438C1003.38 5.95312 1002.69 5.15625 1001.02 5.15625H998.875V9.25ZM1006.48 12.6094C1006.48 10.6719 1008.12 10.1719 1009.66 10.0625C1010.22 10.0234 1011.49 9.95312 1011.89 9.9375L1011.88 9.26562C1011.88 8.3125 1011.3 7.75 1010.16 7.75C1009.17 7.75 1008.58 8.20312 1008.41 8.82812H1006.75C1006.91 7.42188 1008.22 6.40625 1010.22 6.40625C1011.56 6.40625 1013.55 6.90625 1013.55 9.35938V15H1011.92V13.8438H1011.86C1011.53 14.4844 1010.75 15.1875 1009.34 15.1875C1007.73 15.1875 1006.48 14.2656 1006.48 12.6094ZM1008.11 12.625C1008.11 13.4375 1008.78 13.8594 1009.72 13.8594C1011.08 13.8594 1011.89 12.9531 1011.89 11.9375V11.1562L1009.89 11.2969C1008.8 11.375 1008.11 11.7812 1008.11 12.625ZM1019.53 6.51562V7.84375H1017.8V12.5C1017.8 13.4531 1018.28 13.625 1018.81 13.6406C1019.05 13.6406 1019.42 13.6094 1019.66 13.5938V15.0469C1019.42 15.0781 1019.06 15.1094 1018.61 15.1094C1017.3 15.1094 1016.12 14.3906 1016.14 12.8438V7.84375H1014.89V6.51562H1016.14V4.48438H1017.8V6.51562H1019.53ZM1021.16 15V6.51562H1022.83V15H1021.16ZM1022 5.20312C1021.42 5.20312 1020.94 4.76562 1020.94 4.21875C1020.94 3.67188 1021.42 3.23438 1022 3.23438C1022.56 3.23438 1023.05 3.67188 1023.05 4.21875C1023.05 4.76562 1022.56 5.20312 1022 5.20312ZM1028.45 15.1719C1026.05 15.1719 1024.48 13.4219 1024.48 10.7969C1024.48 8.15625 1026.05 6.40625 1028.45 6.40625C1030.84 6.40625 1032.41 8.15625 1032.41 10.7969C1032.41 13.4219 1030.84 15.1719 1028.45 15.1719ZM1028.45 13.7812C1029.98 13.7812 1030.72 12.4219 1030.72 10.7969C1030.72 9.17188 1029.98 7.78125 1028.45 7.78125C1026.89 7.78125 1026.16 9.17188 1026.16 10.7969C1026.16 12.4219 1026.89 13.7812 1028.45 13.7812ZM1035.72 9.96875V15H1034.05V6.51562H1035.66V7.90625H1035.75C1036.16 7 1036.98 6.40625 1038.25 6.40625C1040 6.40625 1041.14 7.5 1041.14 9.60938V15H1039.48V9.8125C1039.48 8.57812 1038.81 7.84375 1037.69 7.84375C1036.55 7.84375 1035.72 8.60938 1035.72 9.96875ZM1042.78 12.6094C1042.78 10.6719 1044.42 10.1719 1045.95 10.0625C1046.52 10.0234 1047.79 9.95312 1048.19 9.9375L1048.17 9.26562C1048.17 8.3125 1047.59 7.75 1046.45 7.75C1045.47 7.75 1044.88 8.20312 1044.7 8.82812H1043.05C1043.2 7.42188 1044.52 6.40625 1046.52 6.40625C1047.86 6.40625 1049.84 6.90625 1049.84 9.35938V15H1048.22V13.8438H1048.16C1047.83 14.4844 1047.05 15.1875 1045.64 15.1875C1044.03 15.1875 1042.78 14.2656 1042.78 12.6094ZM1044.41 12.625C1044.41 13.4375 1045.08 13.8594 1046.02 13.8594C1047.38 13.8594 1048.19 12.9531 1048.19 11.9375V11.1562L1046.19 11.2969C1045.09 11.375 1044.41 11.7812 1044.41 12.625ZM1053.53 3.6875V15H1051.86V3.6875H1053.53Z" fill="#7565F0"/>
<path d="M997.156 115V103.688H1001.19C1003.81 103.688 1005.11 105.266 1005.11 107.359C1005.11 109.438 1003.81 111.031 1001.19 111.031H998.875V115H997.156ZM998.875 109.562H1001.02C1002.69 109.562 1003.38 108.625 1003.38 107.359C1003.38 106.078 1002.69 105.156 1001.02 105.156H998.875V109.562ZM1006.78 115V106.516H1008.39V107.859H1008.48C1008.8 106.953 1009.64 106.391 1010.64 106.391C1010.84 106.391 1011.17 106.406 1011.34 106.422V108.016C1011.2 107.984 1010.81 107.922 1010.47 107.922C1009.31 107.922 1008.45 108.719 1008.45 109.828V115H1006.78ZM1015.91 115.172C1013.5 115.172 1011.94 113.422 1011.94 110.797C1011.94 108.156 1013.5 106.406 1015.91 106.406C1018.3 106.406 1019.86 108.156 1019.86 110.797C1019.86 113.422 1018.3 115.172 1015.91 115.172ZM1015.91 113.781C1017.44 113.781 1018.17 112.422 1018.17 110.797C1018.17 109.172 1017.44 107.781 1015.91 107.781C1014.34 107.781 1013.61 109.172 1013.61 110.797C1013.61 112.422 1014.34 113.781 1015.91 113.781ZM1025.55 106.516V107.844H1023.72V115H1022.05V107.844H1020.73V106.516H1022.05V105.531C1022.05 104.016 1023.02 103.156 1024.58 103.156C1024.98 103.156 1025.39 103.203 1025.72 103.266V104.656C1025.41 104.609 1025.17 104.594 1025.02 104.594C1024.12 104.594 1023.72 104.953 1023.72 105.781V106.516H1025.55ZM1030.38 115.172C1027.88 115.172 1026.34 113.453 1026.34 110.812C1026.34 108.203 1027.91 106.406 1030.27 106.406C1032.2 106.406 1034.03 107.609 1034.03 110.672V111.266H1028C1028.05 112.875 1028.99 113.797 1030.39 113.797C1031.34 113.797 1031.95 113.391 1032.23 112.875H1033.92C1033.55 114.25 1032.23 115.172 1030.38 115.172ZM1028.02 110.016H1032.39C1032.39 108.719 1031.56 107.781 1030.28 107.781C1028.95 107.781 1028.08 108.812 1028.02 110.016ZM1040.45 108.828C1040.3 108.156 1039.77 107.719 1038.84 107.719C1037.89 107.719 1037.2 108.219 1037.22 108.859C1037.2 109.359 1037.61 109.719 1038.55 109.938L1039.89 110.25C1041.45 110.594 1042.2 111.344 1042.22 112.547C1042.2 114.078 1040.92 115.172 1038.75 115.172C1036.72 115.172 1035.5 114.266 1035.3 112.688H1037C1037.14 113.453 1037.73 113.828 1038.73 113.828C1039.81 113.828 1040.5 113.391 1040.52 112.672C1040.5 112.125 1040.09 111.766 1039.2 111.562L1037.88 111.281C1036.34 110.938 1035.55 110.125 1035.55 108.953C1035.55 107.438 1036.86 106.406 1038.83 106.406C1040.72 106.406 1041.89 107.375 1042.06 108.828H1040.45ZM1048.61 108.828C1048.45 108.156 1047.92 107.719 1047 107.719C1046.05 107.719 1045.36 108.219 1045.38 108.859C1045.36 109.359 1045.77 109.719 1046.7 109.938L1048.05 110.25C1049.61 110.594 1050.36 111.344 1050.38 112.547C1050.36 114.078 1049.08 115.172 1046.91 115.172C1044.88 115.172 1043.66 114.266 1043.45 112.688H1045.16C1045.3 113.453 1045.89 113.828 1046.89 113.828C1047.97 113.828 1048.66 113.391 1048.67 112.672C1048.66 112.125 1048.25 111.766 1047.36 111.562L1046.03 111.281C1044.5 110.938 1043.7 110.125 1043.7 108.953C1043.7 107.438 1045.02 106.406 1046.98 106.406C1048.88 106.406 1050.05 107.375 1050.22 108.828H1048.61ZM1052 115V106.516H1053.67V115H1052ZM1052.84 105.203C1052.27 105.203 1051.78 104.766 1051.78 104.219C1051.78 103.672 1052.27 103.234 1052.84 103.234C1053.41 103.234 1053.89 103.672 1053.89 104.219C1053.89 104.766 1053.41 105.203 1052.84 105.203ZM1059.3 115.172C1056.89 115.172 1055.33 113.422 1055.33 110.797C1055.33 108.156 1056.89 106.406 1059.3 106.406C1061.69 106.406 1063.25 108.156 1063.25 110.797C1063.25 113.422 1061.69 115.172 1059.3 115.172ZM1059.3 113.781C1060.83 113.781 1061.56 112.422 1061.56 110.797C1061.56 109.172 1060.83 107.781 1059.3 107.781C1057.73 107.781 1057 109.172 1057 110.797C1057 112.422 1057.73 113.781 1059.3 113.781ZM1066.56 109.969V115H1064.89V106.516H1066.5V107.906H1066.59C1067 107 1067.83 106.406 1069.09 106.406C1070.84 106.406 1071.98 107.5 1071.98 109.609V115H1070.33V109.812C1070.33 108.578 1069.66 107.844 1068.53 107.844C1067.39 107.844 1066.56 108.609 1066.56 109.969ZM1073.62 112.609C1073.62 110.672 1075.27 110.172 1076.8 110.062C1077.36 110.023 1078.63 109.953 1079.03 109.938L1079.02 109.266C1079.02 108.312 1078.44 107.75 1077.3 107.75C1076.31 107.75 1075.72 108.203 1075.55 108.828H1073.89C1074.05 107.422 1075.36 106.406 1077.36 106.406C1078.7 106.406 1080.69 106.906 1080.69 109.359V115H1079.06V113.844H1079C1078.67 114.484 1077.89 115.188 1076.48 115.188C1074.88 115.188 1073.62 114.266 1073.62 112.609ZM1075.25 112.625C1075.25 113.438 1075.92 113.859 1076.86 113.859C1078.22 113.859 1079.03 112.953 1079.03 111.938V111.156L1077.03 111.297C1075.94 111.375 1075.25 111.781 1075.25 112.625ZM1084.38 103.688V115H1082.7V103.688H1084.38Z" fill="#7565F0"/>
<path d="M116 10L954 10.0354" stroke="#D1CBFF"/>
<path d="M114 110L954 109.965" stroke="#D1CBFF"/>
<circle cx="534" cy="10" r="10" fill="#D9D9D9"/>
<circle cx="394" cy="10" r="10" fill="#D9D9D9"/>
<circle cx="394" cy="110" r="10" fill="#D9D9D9"/>
<circle cx="254" cy="10" r="10" fill="#D9D9D9"/>
<circle cx="254" cy="110" r="10" fill="#D9D9D9"/>
<circle cx="114" cy="10" r="10" fill="#D9D9D9"/>
<circle cx="114" cy="110" r="10" fill="#D9D9D9"/>
<circle cx="534" cy="110" r="10" fill="#D9D9D9"/>
<circle cx="674" cy="10" r="10" fill="#7565F0"/>
<circle cx="674" cy="110" r="10" fill="#7565F0"/>
<circle cx="814" cy="10" r="10" fill="#D9D9D9"/>
<circle cx="814" cy="110" r="10" fill="#D9D9D9"/>
<circle cx="954" cy="10" r="10" fill="#D9D9D9"/>
<circle cx="954" cy="110" r="10" fill="#D9D9D9"/>
</svg>
